<?xml version="1.0" standalone="no"?>
<!DOCTYPE svg PUBLIC "-//W3C//DTD SVG 20010904//EN"
 "http://www.w3.org/TR/2001/REC-SVG-20010904/DTD/svg10.dtd">
<svg version="1.0" xmlns="http://www.w3.org/2000/svg"
 width="700.000000pt" height="700.000000pt" viewBox="0 0 700.000000 700.000000"
 preserveAspectRatio="xMidYMid meet">
<metadata>
Created by potrace 1.11, written by Peter Selinger 2001-2013
</metadata>
<g transform="translate(0.000000,700.000000) scale(0.100000,-0.100000)"
fill="#000000" stroke="none">
<path d="M700 6980 c-350 -74 -618 -348 -684 -699 -14 -75 -16 -360 -16 -2781
0 -2421 2 -2706 16 -2781 68 -358 345 -635 703 -703 75 -14 360 -16 2781 -16
2421 0 2706 2 2781 16 358 68 635 345 703 703 14 75 16 360 16 2781 0 2421 -2
2706 -16 2781 -68 358 -345 635 -703 703 -75 14 -359 16 -2790 15 -2573 0
-2710 -1 -2791 -19z m2691 -694 c148 -19 261 -48 376 -97 265 -112 415 -274
488 -526 31 -107 44 -259 23 -286 -7 -9 -101 -54 -208 -98 -279 -115 -248
-108 -279 -68 -66 85 -166 191 -228 241 -175 142 -319 202 -515 214 -258 16
-498 -78 -782 -307 -42 -34 -78 -60 -80 -58 -2 2 -10 27 -19 54 -74 232 -35
481 102 653 107 135 319 239 566 277 111 18 416 18 556 1z m1724 -352 c265
-46 518 -170 687 -337 205 -203 302 -466 338 -910 14 -183 15 -178 -13 -168
-13 5 -53 27 -89 49 -126 77 -310 145 -468 172 -108 19 -121 28 -201 142 -83
119 -237 276 -324 333 -134 87 -300 149 -457 170 -32 4 -49 12 -52 23 -11 38
-106 462 -106 476 0 12 132 43 255 59 85 11 347 6 430 -9z m-3186 -551 c28
-131 51 -257 51 -280 0 -29 -12 -66 -40 -119 -70 -136 -102 -241 -115 -384
l-7 -75 -188 -185 c-193 -191 -238 -247 -284 -362 -48 -122 -58 -227 -31 -352
20 -94 45 -158 120 -305 191 -376 446 -673 767 -896 48 -33 86 -64 84 -69 -4
-15 -154 -75 -256 -103 -74 -20 -120 -26 -210 -26 -128 -1 -199 11 -310 54
-315 122 -578 517 -698 1049 -81 355 -113 708 -93 1005 15 205 34 322 71 437
58 180 132 301 269 439 157 156 347 266 606 349 72 23 141 45 155 50 57 19 54
26 109 -227z m1205 37 c138 -35 269 -117 382 -240 52 -56 114 -138 114 -150 0
-4 -90 -87 -201 -184 -176 -156 -202 -176 -217 -164 -9 7 -37 30 -62 52 -25
21 -79 55 -120 75 -73 35 -77 36 -195 36 -101 0 -129 -4 -176 -23 -125 -50
-214 -138 -401 -394 -55 -76 -104 -138 -109 -138 -17 0 -80 147 -90 210 -36
223 110 498 379 712 237 188 484 262 696 208z m1541 -285 c129 -34 250 -104
362 -208 116 -109 220 -255 297 -417 150 -318 155 -653 13 -983 -98 -229 -313
-510 -499 -653 -171 -133 -384 -203 -573 -191 -75 5 -228 36 -240 49 -1 1 64
97 145 212 l147 209 83 41 c286 142 470 415 470 697 0 240 -97 460 -343 774
-135 173 -207 241 -330 313 -88 52 -106 66 -97 77 16 19 151 70 220 84 30 6
64 13 75 15 38 9 211 -3 270 -19z m-644 -324 c95 -30 156 -78 256 -204 176
-218 298 -411 333 -526 99 -318 -85 -638 -424 -736 -105 -31 -223 -10 -306 54
l-25 20 48 96 c138 278 163 502 76 677 -60 120 -200 236 -401 333 l-97 47 16
31 c25 49 111 135 168 167 106 60 242 76 356 41z m-1134 -202 c17 -6 50 -23
73 -40 l41 -30 -51 -52 c-125 -126 -190 -264 -197 -417 -11 -209 62 -349 331
-640 74 -80 133 -146 132 -148 -2 -1 -38 -9 -80 -17 -136 -26 -331 -15 -471
26 -282 83 -438 321 -397 604 29 201 134 402 301 578 141 147 198 172 318 136z
m2869 -150 c122 -39 266 -141 370 -261 296 -340 265 -834 -89 -1423 -196 -326
-504 -637 -741 -749 -170 -80 -831 -295 -1156 -376 -141 -36 -180 -42 -270
-42 -178 1 -336 47 -495 148 -115 71 -191 139 -269 236 -57 71 -134 195 -124
202 1 1 35 7 74 14 167 27 358 109 584 251 159 99 165 101 286 62 376 -118
668 -83 969 117 121 80 326 281 432 422 292 392 387 777 309 1258 -14 90 -26
166 -26 169 0 8 82 -7 146 -28z m-2362 -120 c268 -116 329 -154 370 -230 54
-99 51 -193 -13 -369 -77 -209 -175 -321 -270 -306 -51 8 -186 101 -277 191
-91 90 -142 164 -187 274 -27 64 -32 89 -31 156 0 67 5 90 31 145 49 107 145
200 206 200 16 0 93 -28 171 -61z m-1444 -182 l85 -122 6 -190 c4 -129 12
-209 23 -250 35 -126 121 -275 213 -370 85 -87 198 -139 373 -171 122 -23 515
-26 600 -6 146 36 245 77 366 154 l62 38 158 -73 c87 -40 159 -78 161 -83 5
-15 -207 -234 -295 -305 -160 -129 -381 -254 -563 -317 -340 -119 -652 -26
-1026 306 -108 97 -238 247 -328 382 -120 180 -235 414 -255 518 -22 111 3
230 70 327 32 46 249 285 259 285 3 0 44 -55 91 -123z m-1050 -1634 c86 -133
236 -294 339 -363 92 -61 215 -116 317 -142 71 -17 118 -22 234 -22 220 0 359
34 633 159 218 99 237 94 360 -90 44 -66 111 -158 149 -204 l69 -84 -48 -50
c-137 -140 -386 -268 -618 -319 -100 -22 -390 -16 -501 10 -361 85 -663 280
-844 547 -102 150 -149 281 -180 498 -32 221 -19 229 90 60z m4745 -665 c-38
-225 -136 -466 -247 -613 -215 -284 -539 -477 -893 -532 -126 -19 -361 -13
-595 17 -250 32 -606 37 -907 15 -198 -15 -256 -16 -331 -6 -264 34 -533 169
-756 382 l-69 66 79 -10 c103 -11 325 -2 439 18 252 46 536 184 740 360 33 28
65 54 71 58 7 4 42 -13 78 -38 184 -123 415 -195 625 -195 170 1 312 30 696
144 415 123 576 184 905 347 96 47 176 85 178 84 2 -2 -4 -45 -13 -97z"/>
</g>
</svg>
