<?xml version="1.0" standalone="no"?>
<!DOCTYPE svg PUBLIC "-//W3C//DTD SVG 20010904//EN"
 "http://www.w3.org/TR/2001/REC-SVG-20010904/DTD/svg10.dtd">
<svg version="1.0" xmlns="http://www.w3.org/2000/svg"
 width="700.000000pt" height="700.000000pt" viewBox="0 0 700.000000 700.000000"
 preserveAspectRatio="xMidYMid meet">
<metadata>
Created by potrace 1.11, written by Peter Selinger 2001-2013
</metadata>
<g transform="translate(0.000000,700.000000) scale(0.100000,-0.100000)"
fill="#000000" stroke="none">
<path d="M2791 6404 c-116 -20 -280 -76 -369 -127 -149 -84 -255 -225 -298
-397 -23 -93 -15 -300 16 -388 14 -41 26 -60 33 -55 7 4 45 33 86 66 110 87
181 133 289 187 321 160 641 140 921 -57 75 -52 219 -195 281 -277 l41 -55 47
21 c26 11 123 51 216 89 93 38 178 77 189 87 42 37 -1 290 -74 434 -122 243
-365 398 -724 464 -128 23 -538 29 -654 8z"/>
<path d="M4655 6063 c-111 -14 -256 -47 -252 -57 2 -6 28 -118 57 -249 48
-210 56 -238 74 -241 12 -3 54 -10 95 -16 145 -24 317 -100 438 -193 85 -65
199 -189 280 -303 39 -55 82 -105 97 -112 14 -6 65 -19 113 -28 162 -30 319
-90 502 -194 30 -16 56 -28 59 -26 7 8 -18 287 -38 411 -69 434 -253 697 -610
876 -195 97 -391 140 -629 138 -86 -1 -169 -4 -186 -6z"/>
<path d="M1655 5686 c-88 -29 -199 -71 -247 -93 -210 -99 -404 -260 -512 -426
-140 -214 -190 -411 -202 -802 -7 -219 5 -406 42 -640 157 -1003 625 -1501
1263 -1345 79 19 261 89 261 100 0 3 -41 34 -92 69 -314 222 -559 504 -747
861 -151 287 -182 456 -122 650 42 135 125 245 324 427 76 70 145 139 152 153
7 14 16 57 20 95 13 129 46 238 115 375 50 99 50 115 6 318 -68 313 -68 312
-85 311 -9 0 -88 -24 -176 -53z"/>
<path d="M2810 5539 c-154 -39 -343 -149 -486 -282 -278 -258 -366 -569 -228
-805 l25 -43 133 178 c190 254 288 340 431 378 163 42 315 1 466 -127 l48 -40
34 28 c101 84 366 320 366 327 3 27 -141 189 -224 252 -180 138 -374 184 -565
134z"/>
<path d="M4348 5270 c-99 -17 -268 -80 -268 -100 0 -4 44 -32 97 -61 114 -64
203 -148 337 -320 194 -249 284 -418 326 -614 41 -189 14 -353 -88 -528 -69
-120 -231 -266 -368 -332 -38 -19 -79 -45 -90 -57 -12 -13 -80 -108 -152 -211
-84 -118 -127 -189 -120 -192 115 -43 307 -57 425 -32 258 55 481 226 711 545
74 103 171 295 206 407 113 359 56 709 -171 1055 -73 110 -245 281 -340 339
-154 92 -339 129 -505 101z"/>
<path d="M3760 4936 c-79 -22 -142 -58 -200 -115 -50 -49 -98 -117 -88 -126 2
-1 43 -21 92 -44 114 -53 237 -135 303 -203 197 -202 202 -453 15 -825 l-41
-81 48 -32 c62 -39 100 -50 177 -50 127 0 271 66 380 175 118 118 168 235 168
395 0 115 -19 183 -81 300 -88 164 -317 473 -394 531 -106 80 -255 110 -379
75z"/>
<path d="M2755 4741 c-50 -13 -96 -41 -153 -95 -163 -154 -298 -380 -337 -568
-43 -202 4 -387 129 -512 127 -127 306 -186 563 -186 105 0 208 13 226 29 4 4
-45 63 -109 132 -200 214 -295 355 -328 485 -18 70 -21 197 -5 264 19 83 85
203 159 289 80 93 81 95 1 135 -55 28 -105 37 -146 27z"/>
<path d="M5603 4569 c3 -24 15 -105 27 -179 49 -330 4 -632 -140 -921 -98
-200 -228 -369 -427 -560 -339 -325 -717 -413 -1151 -268 -65 22 -103 29 -126
25 -18 -3 -91 -43 -162 -87 -223 -139 -411 -220 -581 -250 -37 -7 -70 -14 -71
-15 -10 -7 66 -130 123 -201 135 -169 333 -298 545 -354 124 -33 299 -31 430
3 52 14 97 24 99 22 2 -2 -22 -31 -54 -66 -31 -35 -82 -98 -114 -142 l-56 -78
-125 5 c-207 9 -393 70 -580 191 l-72 47 -86 -71 c-48 -38 -90 -69 -93 -68 -4
2 -38 39 -77 83 l-70 80 71 66 71 65 -66 80 c-36 43 -102 134 -147 202 -49 74
-95 131 -114 142 -50 31 -102 26 -198 -21 -46 -23 -116 -54 -155 -69 l-70 -28
-99 34 c-222 78 -475 110 -784 101 l-205 -7 -86 88 c-48 50 -122 142 -169 212
-46 69 -86 127 -87 129 -2 2 -9 1 -17 -2 -26 -10 32 -355 77 -459 6 -14 -1
-19 -36 -28 -150 -38 -269 -73 -273 -80 -15 -24 108 -338 208 -535 230 -449
537 -771 916 -960 377 -188 945 -226 1498 -101 152 34 254 66 259 81 3 6 -11
58 -30 115 l-35 103 120 -5 c66 -3 122 -8 125 -11 3 -3 -9 -47 -26 -98 -17
-51 -29 -98 -26 -105 9 -24 275 -91 501 -125 171 -26 473 -36 630 -20 458 47
808 210 1105 515 179 183 314 372 437 611 106 207 225 518 206 536 -27 23
-314 92 -499 119 -77 11 -196 23 -263 27 l-123 6 109 111 c204 207 321 371
447 624 205 411 246 729 132 1020 -96 244 -360 464 -610 508 l-39 7 6 -44z
m-3917 -2350 c156 -15 167 -19 180 -60 9 -25 9 -36 0 -41 -30 -20 -240 -3
-358 29 -48 13 -58 20 -67 46 -6 16 -11 32 -11 33 0 8 151 4 256 -7z m3884 9
c0 -2 -15 -50 -33 -108 l-32 -105 -145 -72 c-145 -73 -340 -156 -340 -146 0 3
20 69 45 147 l45 142 52 19 c59 20 165 71 218 103 28 18 51 22 113 22 42 0 77
-1 77 -2z m325 -24 c126 -17 316 -54 327 -63 7 -6 -107 -68 -496 -272 l-139
-72 6 29 c4 16 16 83 28 149 12 66 30 150 40 186 l19 66 52 -4 c29 -2 103 -11
163 -19z m-4940 -82 c16 -26 45 -67 63 -91 19 -24 30 -42 25 -40 -52 23 -271
144 -267 148 8 8 93 28 124 30 20 1 32 -9 55 -47z m1095 27 c3 0 -8 -5 -24 -9
-33 -10 -46 -6 -46 15 0 11 7 12 32 4 18 -5 35 -9 38 -10z m-970 -298 c337
-177 341 -179 308 -190 -113 -36 -409 -121 -421 -121 -21 0 -142 225 -216 404
-28 67 -36 96 -26 92 8 -3 168 -86 355 -185z m3900 183 c0 -20 -84 -271 -93
-280 -18 -17 -514 -172 -521 -163 -2 2 16 64 39 138 l42 134 259 87 c293 98
274 92 274 84z m1266 -96 c-76 -182 -192 -398 -213 -398 -12 0 -308 85 -421
121 -33 11 -29 13 315 195 191 101 351 183 355 184 4 0 -13 -46 -36 -102z
m-1977 -291 c-17 -53 -36 -97 -42 -97 -7 -1 -38 -7 -70 -14 l-57 -14 19 27
c30 42 173 203 176 199 2 -2 -10 -47 -26 -101z m-1446 -28 c50 -59 65 -84 57
-94 -12 -14 -88 -50 -94 -44 -10 10 -65 203 -60 210 12 21 34 4 97 -72z m-164
-93 c24 -77 28 -102 18 -108 -28 -18 -149 -60 -240 -83 l-98 -24 -54 26 c-52
26 -56 30 -76 93 -12 36 -24 70 -26 76 -3 7 19 14 58 18 88 10 238 51 312 85
34 15 65 26 69 22 3 -3 20 -51 37 -105z m-868 -48 l232 -123 -44 -13 c-24 -7
-66 -19 -94 -27 -51 -14 -562 -166 -601 -179 -19 -6 -34 7 -97 83 -88 105
-155 194 -159 212 -2 7 89 39 257 90 143 42 263 78 267 78 3 1 111 -54 239
-121z m3947 36 c125 -37 230 -70 234 -73 17 -15 -225 -316 -247 -307 -6 2
-107 32 -223 67 l-212 62 46 53 c47 55 149 212 159 245 4 10 9 19 11 19 3 0
107 -30 232 -66z m-3659 -26 c6 -17 11 -35 11 -40 0 -9 -123 53 -142 70 -4 4
22 6 57 4 61 -4 64 -5 74 -34z m-64 -340 c139 -109 243 -170 373 -218 34 -12
61 -25 58 -27 -2 -3 -131 -42 -287 -88 l-282 -84 -86 35 c-47 19 -131 61 -186
95 -100 60 -251 176 -242 186 13 12 563 169 572 163 6 -4 42 -31 80 -62z
m3408 -34 c106 -31 198 -60 206 -64 36 -19 -260 -220 -420 -284 l-86 -35 -219
65 c-120 35 -226 67 -234 70 -9 3 23 19 75 38 151 55 280 128 405 230 30 25
61 43 68 41 7 -3 99 -30 205 -61z m-2158 -256 c7 -18 12 -34 10 -36 -5 -5
-115 52 -115 60 0 4 20 8 45 8 42 0 47 -3 60 -32z m-184 -60 c77 -39 136 -75
132 -79 -11 -9 -185 -45 -318 -64 -155 -23 -427 -30 -577 -16 -141 14 -250 35
-228 44 8 3 139 43 290 88 269 81 278 83 410 89 74 3 139 7 144 8 5 1 71 -30
147 -70z m729 67 c0 -6 -81 -47 -85 -43 -1 2 1 13 6 26 6 17 16 22 44 22 19 0
35 -2 35 -5z m505 -37 c98 2 105 1 340 -68 132 -39 247 -74 255 -77 22 -9 -88
-30 -228 -44 -159 -15 -426 -7 -602 20 -123 18 -253 44 -290 57 -9 3 29 29 95
65 l110 60 110 -8 c61 -4 155 -7 210 -5z"/>
<path d="M3133 4491 c-88 -64 -153 -181 -161 -292 -9 -136 71 -304 212 -444
96 -95 228 -184 284 -192 79 -11 146 53 223 212 113 231 119 405 18 506 -60
60 -437 239 -504 239 -19 0 -48 -12 -72 -29z"/>
<path d="M1734 4288 c-172 -179 -224 -275 -224 -418 0 -91 25 -167 109 -332
190 -375 448 -665 762 -857 239 -145 481 -178 723 -97 210 70 458 214 632 366
98 85 248 250 237 261 -4 4 -76 40 -160 78 l-151 71 -82 -51 c-91 -56 -192
-99 -308 -132 -68 -19 -103 -21 -302 -21 -468 -1 -645 68 -809 315 -106 157
-140 280 -143 520 l-3 164 -84 123 c-46 67 -85 122 -86 122 -1 0 -51 -51 -111
-112z"/>
</g>
</svg>
