<?xml version="1.0" standalone="no"?>
<!DOCTYPE svg PUBLIC "-//W3C//DTD SVG 20010904//EN"
 "http://www.w3.org/TR/2001/REC-SVG-20010904/DTD/svg10.dtd">
<svg version="1.0" xmlns="http://www.w3.org/2000/svg"
 width="700.000000pt" height="700.000000pt" viewBox="0 0 700.000000 700.000000"
 preserveAspectRatio="xMidYMid meet">
<metadata>
Created by potrace 1.11, written by Peter Selinger 2001-2013
</metadata>
<g transform="translate(0.000000,700.000000) scale(0.100000,-0.100000)"
fill="#000000" stroke="none">
<path d="M780 6990 c-369 -44 -659 -302 -753 -667 l-22 -88 0 -2735 0 -2735
22 -88 c84 -328 322 -566 650 -650 l88 -22 2735 0 2735 0 88 22 c328 84 566
322 650 650 l22 88 0 2735 0 2735 -22 88 c-83 325 -318 561 -645 649 l-83 23
-2700 1 c-1485 1 -2729 -2 -2765 -6z m2531 -570 c216 -22 401 -78 564 -170 98
-55 225 -179 278 -270 50 -87 95 -230 109 -350 15 -125 9 -135 -99 -180 -43
-17 -141 -58 -218 -91 -77 -32 -145 -59 -150 -59 -6 0 -24 20 -42 43 -156 208
-371 366 -573 423 -102 28 -319 26 -430 -4 -158 -43 -336 -141 -510 -281 -41
-33 -78 -57 -81 -53 -29 35 -59 186 -59 297 0 168 60 323 170 439 101 106 239
179 432 228 142 36 409 48 609 28z m1809 -364 c322 -65 623 -246 770 -465 143
-213 199 -425 234 -883 6 -84 0 -85 -99 -27 -147 87 -275 136 -457 174 -65 14
-128 31 -139 37 -11 7 -48 54 -82 103 -86 126 -269 306 -375 369 -109 65 -237
112 -361 132 l-101 17 -9 36 c-35 138 -102 454 -98 464 4 12 116 37 252 57 86
13 377 4 465 -14z m-3266 -323 c22 -74 106 -479 106 -511 0 -15 -16 -58 -36
-97 -76 -151 -104 -240 -123 -396 -11 -95 -18 -105 -173 -245 -184 -167 -263
-266 -314 -399 -25 -63 -28 -83 -28 -200 -1 -159 15 -217 113 -415 195 -391
441 -682 779 -921 51 -35 92 -67 92 -70 0 -16 -193 -89 -305 -115 -110 -25
-283 -23 -386 4 -261 69 -472 271 -634 607 -219 453 -318 1209 -229 1745 66
393 283 673 674 870 73 37 413 158 447 160 6 0 14 -8 17 -17z m1286 -193 c128
-43 227 -107 330 -213 85 -86 149 -175 134 -185 -6 -4 -99 -85 -208 -181
l-196 -173 -53 44 c-118 101 -209 138 -341 138 -209 0 -321 -81 -559 -402 -65
-87 -121 -158 -126 -158 -17 0 -72 122 -87 192 -26 122 -5 240 67 378 135 262
456 510 744 576 80 18 212 11 295 -16z m1500 -276 c82 -19 209 -80 287 -139
140 -104 298 -307 384 -490 56 -119 96 -263 111 -396 37 -333 -94 -688 -381
-1030 -289 -345 -640 -478 -984 -372 l-58 18 148 210 148 210 88 47 c179 95
315 227 392 382 94 190 101 384 20 608 -62 172 -213 401 -414 626 -71 81 -111
111 -239 183 l-84 47 43 25 c146 85 354 112 539 71z m-678 -315 c59 -13 136
-49 186 -87 45 -34 209 -242 298 -377 87 -133 139 -233 159 -311 19 -73 19
-212 0 -284 -51 -192 -205 -349 -409 -415 -134 -43 -235 -29 -340 50 -19 14
-18 18 27 112 95 203 127 317 127 456 0 149 -46 252 -163 364 -74 72 -143 117
-281 185 -55 28 -103 52 -104 54 -2 1 13 28 34 59 100 152 291 231 466 194z
m-1079 -219 c23 -11 55 -31 72 -44 l29 -24 -58 -63 c-217 -234 -251 -491 -98
-744 50 -83 95 -139 241 -298 69 -76 127 -142 129 -147 7 -19 -108 -35 -253
-34 -220 0 -344 32 -478 121 -231 154 -289 447 -150 758 91 202 264 414 387
475 53 26 124 26 179 0z m2890 -158 c175 -71 365 -239 443 -394 159 -314 130
-644 -97 -1104 -117 -237 -252 -426 -448 -626 l-105 -108 -77 0 c-267 0 -598
-74 -811 -181 -163 -82 -268 -155 -424 -295 -83 -75 -97 -83 -165 -102 -110
-29 -144 -34 -251 -33 -244 1 -482 109 -682 307 -61 61 -143 171 -178 238 -24
46 -19 51 58 60 139 16 366 114 595 257 148 93 162 95 306 49 202 -65 420 -76
603 -30 112 27 285 112 385 187 97 74 312 292 387 394 286 386 381 775 304
1248 -14 91 -26 167 -26 169 0 14 116 -9 183 -36z m-2426 -93 c191 -81 321
-149 362 -189 46 -45 81 -131 81 -198 0 -122 -98 -370 -185 -469 -80 -91 -132
-93 -261 -6 -155 103 -255 212 -325 356 -70 146 -75 248 -15 367 52 102 145
190 202 190 12 0 76 -23 141 -51z m-1417 -189 c101 -145 103 -150 95 -284 -15
-243 62 -462 224 -637 128 -139 279 -190 646 -214 254 -18 518 48 703 174 l59
40 167 -77 c91 -42 166 -79 166 -82 0 -13 -168 -192 -242 -257 -222 -197 -546
-368 -773 -410 -194 -35 -415 17 -624 149 -155 97 -337 261 -466 418 -141 172
-336 518 -371 660 -32 125 -2 256 83 372 60 81 244 271 253 261 4 -5 40 -55
80 -113z m-1039 -1650 c53 -79 117 -159 176 -219 51 -52 92 -95 90 -96 -1 -1
-56 -9 -121 -19 -66 -9 -132 -20 -146 -22 -23 -5 -27 -1 -42 43 -28 78 -45
160 -64 296 -15 111 -15 130 -3 138 8 5 17 8 20 6 4 -1 44 -58 90 -127z m1773
-315 c16 -10 68 -77 116 -149 49 -72 116 -165 150 -206 l61 -75 -68 -62 c-37
-34 -71 -63 -74 -63 -3 0 -39 32 -79 70 -136 132 -254 217 -433 310 l-108 57
44 17 c24 9 98 41 163 72 130 60 172 65 228 29z m-1330 -142 c85 -268 127
-405 124 -408 -2 -1 -97 48 -212 109 -181 96 -214 117 -243 156 -42 57 -87
130 -82 135 4 4 271 42 334 48 22 2 45 4 52 5 6 1 18 -19 27 -45z m4076 43 c0
-18 -284 -155 -296 -143 -2 2 4 28 14 57 20 62 23 64 167 78 50 5 96 10 103
11 6 0 12 -1 12 -3z m-3835 -87 c55 -11 131 -19 197 -19 l107 0 55 -172 c30
-95 71 -225 90 -288 20 -63 39 -124 42 -134 6 -18 2 -19 -58 -14 -56 5 -85 16
-236 94 -94 49 -174 96 -177 104 -5 12 -111 344 -141 444 -5 15 -3 18 12 12
11 -5 60 -16 109 -27z m3427 -44 l-18 -60 -229 -77 c-283 -94 -305 -100 -305
-82 0 20 141 116 255 174 100 50 308 125 312 112 2 -4 -5 -34 -15 -67z m-2881
30 c101 -34 259 -115 349 -179 l75 -53 39 -127 c21 -70 34 -131 30 -135 -20
-17 -135 -61 -209 -80 -75 -19 -216 -43 -222 -38 -4 5 -193 608 -193 617 0 8
20 16 46 19 6 0 44 -10 85 -24z m3505 -168 c-14 -69 -30 -135 -36 -146 -10
-20 -50 -48 -50 -35 0 8 91 297 97 307 14 25 11 -14 -11 -126z m-126 51 c0 -2
-22 -72 -48 -156 l-48 -153 -244 -128 c-135 -71 -246 -128 -248 -126 -4 4 95
323 106 343 4 7 50 30 102 51 52 22 156 68 230 104 124 60 150 71 150 65z
m-2760 -312 c-12 -12 -25 0 -35 34 l-7 25 26 -24 c18 -17 23 -28 16 -35z m510
-2 c186 -119 351 -173 567 -183 l132 -6 -48 -75 c-80 -125 -151 -257 -217
-410 -35 -80 -65 -144 -68 -142 -4 1 -59 2 -123 2 l-118 0 -19 48 c-84 208
-176 383 -293 556 -40 60 -72 112 -71 116 7 18 174 147 183 142 6 -3 39 -25
75 -48z m1640 50 c0 -4 -27 -90 -60 -193 l-60 -186 -281 -148 c-155 -81 -283
-146 -285 -144 -5 5 154 509 163 517 4 4 94 33 198 63 105 31 215 65 245 76
59 21 80 25 80 15z m613 -161 c20 -12 -180 -318 -209 -318 -5 0 -78 20 -162
44 -121 36 -149 47 -135 55 10 6 113 61 228 123 173 92 215 111 240 106 17 -3
33 -7 38 -10z m-1263 -25 c0 -2 -40 -129 -88 -283 l-88 -280 -128 -68 c-109
-59 -133 -68 -161 -63 l-33 7 24 60 c61 148 181 371 276 511 l59 87 62 14 c71
17 77 18 77 15z m-1282 -115 c75 -111 163 -267 229 -408 75 -161 74 -155 16
-155 -39 1 -70 12 -158 58 l-109 57 -68 215 c-91 290 -87 262 -36 293 24 15
48 26 54 27 7 0 39 -39 72 -87z m-213 -194 c30 -95 53 -174 51 -176 -2 -3
-454 232 -463 241 -2 1 46 15 106 29 60 15 140 40 178 55 37 16 69 27 71 26 2
-1 28 -80 57 -175z m-552 17 c12 -7 136 -73 276 -146 163 -85 249 -135 240
-140 -8 -4 -69 -24 -136 -44 l-121 -36 -67 25 c-137 52 -298 149 -410 248
l-50 44 60 17 c33 9 78 23 100 31 52 18 81 18 108 1z m2805 -26 c192 -57 202
-61 202 -69 0 -11 -167 -134 -240 -176 -63 -36 -188 -91 -263 -115 -35 -11
-52 -8 -215 40 -97 29 -183 56 -191 60 -9 5 85 59 265 153 154 81 285 147 292
147 7 0 75 -18 150 -40z m-2085 -352 l42 -22 -45 -7 c-60 -10 -225 -11 -216
-2 8 8 143 51 164 52 7 1 32 -9 55 -21z m1367 -18 c73 -22 136 -43 139 -46 8
-9 -369 3 -392 12 -15 5 -7 13 40 40 32 18 63 34 69 34 6 0 71 -18 144 -40z"/>
</g>
</svg>
